G04 #@! TF.GenerationSoftware,KiCad,Pcbnew,(5.1.2-1)-1*
G04 #@! TF.CreationDate,2020-07-28T22:06:20+02:00*
G04 #@! TF.ProjectId,jamloopy-ctrl,6a616d6c-6f6f-4707-992d-6374726c2e6b,rev?*
G04 #@! TF.SameCoordinates,Original*
G04 #@! TF.FileFunction,Copper,L1,Top*
G04 #@! TF.FilePolarity,Positive*
%FSLAX46Y46*%
G04 Gerber Fmt 4.6, Leading zero omitted, Abs format (unit mm)*
G04 Created by KiCad (PCBNEW (5.1.2-1)-1) date 2020-07-28 22:06:20*
%MOMM*%
%LPD*%
G04 APERTURE LIST*
%ADD10C,2.200000*%
%ADD11R,1.600000X1.600000*%
%ADD12C,1.600000*%
%ADD13C,4.000000*%
%ADD14O,1.600000X1.600000*%
%ADD15C,0.250000*%
G04 APERTURE END LIST*
D10*
X109220000Y-128270000D03*
X115570000Y-125730000D03*
X96520000Y-106680000D03*
X90170000Y-109220000D03*
X128270000Y-109220000D03*
X134620000Y-106680000D03*
D11*
X107950000Y-57150000D03*
D12*
X110720000Y-57150000D03*
X113490000Y-57150000D03*
X116260000Y-57150000D03*
X119030000Y-57150000D03*
X109335000Y-54310000D03*
X112105000Y-54310000D03*
X114875000Y-54310000D03*
X117645000Y-54310000D03*
D13*
X125990000Y-55730000D03*
X100990000Y-55730000D03*
X187350000Y-55730000D03*
X212350000Y-55730000D03*
D12*
X204005000Y-54310000D03*
X201235000Y-54310000D03*
X198465000Y-54310000D03*
X195695000Y-54310000D03*
X205390000Y-57150000D03*
X202620000Y-57150000D03*
X199850000Y-57150000D03*
X197080000Y-57150000D03*
D11*
X194310000Y-57150000D03*
D10*
X96520000Y-125730000D03*
X90170000Y-128270000D03*
D12*
X175260000Y-48260000D03*
D14*
X175260000Y-58420000D03*
X180340000Y-58420000D03*
D12*
X180340000Y-48260000D03*
D10*
X134620000Y-125730000D03*
X128270000Y-128270000D03*
X176530000Y-71120000D03*
X182880000Y-68580000D03*
X201930000Y-68580000D03*
X195580000Y-71120000D03*
X214630000Y-71120000D03*
X220980000Y-68580000D03*
X182880000Y-87630000D03*
X176530000Y-90170000D03*
X195580000Y-90170000D03*
X201930000Y-87630000D03*
X220980000Y-87630000D03*
X214630000Y-90170000D03*
X176530000Y-109220000D03*
X182880000Y-106680000D03*
X201930000Y-106680000D03*
X195580000Y-109220000D03*
X214630000Y-109220000D03*
X220980000Y-106680000D03*
X182880000Y-125730000D03*
X176530000Y-128270000D03*
X195580000Y-128270000D03*
X201930000Y-125730000D03*
X220980000Y-125730000D03*
X214630000Y-128270000D03*
X109220000Y-109220000D03*
X115570000Y-106680000D03*
D15*
X107950000Y-57150000D02*
X107950000Y-57824991D01*
X109000000Y-57150000D02*
X107950000Y-57150000D01*
X109220000Y-57370000D02*
X109000000Y-57150000D01*
X109220000Y-109220000D02*
X109220000Y-57370000D01*
X110720000Y-58281370D02*
X110720000Y-57150000D01*
X110645001Y-58356369D02*
X110720000Y-58281370D01*
X110645001Y-126844999D02*
X110645001Y-58356369D01*
X109220000Y-128270000D02*
X110645001Y-126844999D01*
X113490000Y-58281370D02*
X113490000Y-57150000D01*
X113490000Y-106709002D02*
X113490000Y-58281370D01*
X115355001Y-108574003D02*
X113490000Y-106709002D01*
X115355001Y-112876001D02*
X115355001Y-108574003D01*
X113030000Y-126569002D02*
X113030000Y-115201002D01*
X113030000Y-115201002D02*
X115355001Y-112876001D01*
X109904001Y-129695001D02*
X113030000Y-126569002D01*
X108574003Y-129695001D02*
X109904001Y-129695001D01*
X107149002Y-128270000D02*
X108574003Y-129695001D01*
X90170000Y-128270000D02*
X107149002Y-128270000D01*
X117059999Y-57949999D02*
X116260000Y-57150000D01*
X120650000Y-61540000D02*
X117059999Y-57949999D01*
X120650000Y-120650000D02*
X120650000Y-61540000D01*
X128270000Y-128270000D02*
X120650000Y-120650000D01*
X118185001Y-53184999D02*
X110460001Y-53184999D01*
X110134999Y-53510001D02*
X109335000Y-54310000D01*
X128270000Y-63269998D02*
X118185001Y-53184999D01*
X110460001Y-53184999D02*
X110134999Y-53510001D01*
X128270000Y-109220000D02*
X128270000Y-63269998D01*
X90170000Y-109220000D02*
X90170000Y-60960000D01*
X90170000Y-60960000D02*
X97790000Y-53340000D01*
X108365000Y-53340000D02*
X109335000Y-54310000D01*
X97790000Y-53340000D02*
X108365000Y-53340000D01*
X195580000Y-71120000D02*
X195580000Y-90170000D01*
X195580000Y-90170000D02*
X195580000Y-109220000D01*
X195580000Y-109220000D02*
X195580000Y-128270000D01*
X193040000Y-71120000D02*
X180340000Y-58420000D01*
X195580000Y-71120000D02*
X193040000Y-71120000D01*
X192415000Y-48260000D02*
X180340000Y-48260000D01*
X198465000Y-54310000D02*
X192415000Y-48260000D01*
X180340000Y-48260000D02*
X175260000Y-48260000D01*
X214630000Y-71120000D02*
X214630000Y-90170000D01*
X214630000Y-90170000D02*
X214630000Y-109220000D01*
X214630000Y-109220000D02*
X214630000Y-128270000D01*
X214630000Y-69564366D02*
X214630000Y-71120000D01*
X214630000Y-64724998D02*
X214630000Y-69564366D01*
X205930001Y-56024999D02*
X214630000Y-64724998D01*
X198541369Y-56024999D02*
X205930001Y-56024999D01*
X196826370Y-54310000D02*
X198541369Y-56024999D01*
X195695000Y-54310000D02*
X196826370Y-54310000D01*
X176530000Y-71120000D02*
X176530000Y-90170000D01*
X176530000Y-90170000D02*
X176530000Y-109220000D01*
X176530000Y-109220000D02*
X176530000Y-128270000D01*
X175260000Y-69850000D02*
X176530000Y-71120000D01*
X175260000Y-58420000D02*
X175260000Y-69850000D01*
X201930000Y-112560998D02*
X201930000Y-124174366D01*
X204470000Y-94449002D02*
X204470000Y-110020998D01*
X203905999Y-74835001D02*
X203905999Y-91534999D01*
X203294999Y-74224001D02*
X203905999Y-74835001D01*
X203294999Y-92145999D02*
X203294999Y-93274001D01*
X204470000Y-71920998D02*
X203294999Y-73095999D01*
X203905999Y-91534999D02*
X203294999Y-92145999D01*
X202620000Y-57150000D02*
X202620000Y-58281370D01*
X203294999Y-93274001D02*
X204470000Y-94449002D01*
X203294999Y-73095999D02*
X203294999Y-74224001D01*
X202620000Y-58281370D02*
X204470000Y-60131370D01*
X204470000Y-110020998D02*
X201930000Y-112560998D01*
X201930000Y-124174366D02*
X201930000Y-125730000D01*
X204470000Y-60131370D02*
X204470000Y-71920998D01*
X199850000Y-57150000D02*
X199850000Y-70678998D01*
X199850000Y-70678998D02*
X202844988Y-73673986D01*
X203355001Y-74920413D02*
X203355001Y-91449587D01*
X201930000Y-105124366D02*
X201930000Y-106680000D01*
X201930000Y-92874588D02*
X201930000Y-105124366D01*
X202844988Y-73673986D02*
X202844988Y-74410401D01*
X202844988Y-74410401D02*
X203355001Y-74920413D01*
X203355001Y-91449587D02*
X201930000Y-92874588D01*
X200830001Y-86530001D02*
X201930000Y-87630000D01*
X197064999Y-82764999D02*
X200830001Y-86530001D01*
X197064999Y-71744003D02*
X197064999Y-82764999D01*
X197080000Y-71729002D02*
X197064999Y-71744003D01*
X197080000Y-57150000D02*
X197080000Y-71729002D01*
M02*
