M48
; DRILL file {KiCad (5.1.2-1)-1} date 2020 July 28, Tuesday 22:06:24
; FORMAT={-:-/ absolute / metric / decimal}
; #@! TF.CreationDate,2020-07-28T22:06:24+02:00
; #@! TF.GenerationSoftware,Kicad,Pcbnew,(5.1.2-1)-1
; #@! TF.FileFunction,NonPlated,1,2,NPTH
FMAT,2
METRIC
T1C1.700
T2C4.000
%
G90
G05
T1
X107.95Y-130.81
X118.11Y-130.81
X194.31Y-130.81
X204.47Y-130.81
X88.9Y-111.76
X99.06Y-111.76
X88.9Y-130.81
X99.06Y-130.81
X175.26Y-130.81
X185.42Y-130.81
X127.0Y-111.76
X137.16Y-111.76
X194.31Y-73.66
X204.47Y-73.66
X194.31Y-111.76
X204.47Y-111.76
X107.95Y-111.76
X118.11Y-111.76
X127.0Y-130.81
X137.16Y-130.81
X213.36Y-92.71
X223.52Y-92.71
X175.26Y-92.71
X185.42Y-92.71
X213.36Y-130.81
X223.52Y-130.81
X213.36Y-73.66
X223.52Y-73.66
X213.36Y-111.76
X223.52Y-111.76
X175.26Y-73.66
X185.42Y-73.66
X175.26Y-111.76
X185.42Y-111.76
X194.31Y-92.71
X204.47Y-92.71
T2
X180.34Y-111.76
X199.39Y-92.71
X113.03Y-130.81
X199.39Y-130.81
X93.98Y-111.76
X93.98Y-130.81
X180.34Y-130.81
X132.08Y-111.76
X199.39Y-73.66
X199.39Y-111.76
X113.03Y-111.76
X132.08Y-130.81
X218.44Y-92.71
X180.34Y-92.71
X228.6Y-52.07
X228.6Y-148.59
X83.82Y-148.59
X83.82Y-52.07
X218.44Y-130.81
X218.44Y-73.66
X218.44Y-111.76
X180.34Y-73.66
T0
M30
